<?xml version="1.0" encoding="UTF-8" standalone="no"?>
<svg
   width="285.47958"
   height="218.58997"
   viewBox="0 0 285.47958 218.58997"
   version="1.1"
   id="svg9"
   xmlns="http://www.w3.org/2000/svg"
   xmlns:svg="http://www.w3.org/2000/svg">
  <defs
     id="defs9" />
  <!-- Left speech bubble with head silhouette and neural network -->
  <!-- Right speech bubble with 3 dots -->
  <!-- Text: Lumo -->
  <text
     x="39.599121"
     y="217.71497"
     font-family="Arial, sans-serif"
     font-size="72px"
     font-weight="bold"
     fill="#000000"
     id="text9"
     style="font-size:74.6667px">Lumo</text>
  <g
     id="g14"
     transform="translate(-134.30936,-24.24645)">
    <g
       id="g13"
       transform="translate(47.228357,5.5562773)">
      <path
         d="m 127.081,18.690174 h 80 c 22.62127,0 40.00049,18.767663 40.00032,39.999826 l -3.2e-4,40 c -2e-4,25.39941 -14.13757,40.00017 -40,40.00017 h -19.99968 l -40,40 v -40 H 127.081 c -21.2322,0 -40.000199,-15.0638 -40,-40.00017 l 3.2e-4,-40 C 87.081505,35.605704 104.45973,18.690174 127.081,18.690174 Z"
         fill="#00a7b5"
         id="path1" />
      <g
         id="g10"
         transform="translate(-49.08045,-7.4083698)">
        <circle
           cx="186.85397"
           cy="88.927536"
           r="8"
           fill="#ffffff"
           id="circle1" />
        <circle
           cx="216.17982"
           cy="59.944084"
           r="8"
           fill="#ffffff"
           id="circle2" />
        <circle
           cx="245.46956"
           cy="88.927536"
           r="8"
           fill="#ffffff"
           id="circle3" />
        <circle
           cx="216.17982"
           cy="117.96198"
           r="8"
           fill="#ffffff"
           id="circle4" />
        <rect
           style="fill:none;fill-opacity:1;stroke:#ffffff;stroke-width:3.76455;stroke-linecap:round;stroke-linejoin:round;stroke-dasharray:none;stroke-opacity:1;paint-order:stroke fill markers"
           id="rect9"
           width="41.235447"
           height="41.235447"
           x="69.31871"
           y="195.13481"
           transform="rotate(-45)" />
      </g>
    </g>
    <g
       id="g12">
      <path
         d="m 379.78894,40.915284 h -80 c -22.62127,0 -40.00049,18.767663 -40.00032,39.999826 l 3.2e-4,39.99999 c 2e-4,25.39941 14.13757,40.00017 40,40.00017 h 19.99968 l 40,40 v -40 h 20.00032 c 21.2322,0 40.0002,-15.0638 40,-40.00017 l -3.2e-4,-39.99999 C 419.78844,57.830814 402.41021,40.915284 379.78894,40.915284 Z"
         fill="#00a7b5"
         id="path12"
         style="fill:#6a1b9a;fill-opacity:1" />
      <circle
         cx="-369.46848"
         cy="103.76977"
         r="8"
         fill="#ffffff"
         id="circle7"
         transform="scale(-1,1)" />
      <circle
         cx="-339.46848"
         cy="103.76977"
         r="8"
         fill="#ffffff"
         id="circle8"
         transform="scale(-1,1)" />
      <circle
         cx="-309.46848"
         cy="103.76977"
         r="8"
         fill="#ffffff"
         id="circle9"
         transform="scale(-1,1)" />
    </g>
  </g>
</svg>
